<svg width="17" height="16" viewBox="0 0 17 16" fill="none" xmlns="http://www.w3.org/2000/svg">
<path d="M12.9088 12.2426C13.1691 11.9822 13.1691 11.5601 12.9088 11.2997L9.60942 8.00037L12.9097 4.70009C13.1701 4.43974 13.1701 4.01763 12.9097 3.75728C12.6494 3.49693 12.2272 3.49693 11.9669 3.75728L8.66661 7.05756L5.36633 3.75727C5.10598 3.49692 4.68387 3.49692 4.42352 3.75727C4.16317 4.01762 4.16317 4.43973 4.42352 4.70008L7.7238 8.00037L4.42442 11.2997C4.16407 11.5601 4.16407 11.9822 4.42442 12.2426C4.68477 12.5029 5.10688 12.5029 5.36723 12.2426L8.66661 8.94318L11.966 12.2426C12.2263 12.5029 12.6485 12.5029 12.9088 12.2426Z" fill="#4B5768"/>
</svg>
