<svg width="64" height="64" viewBox="0 0 64 64" fill="none" xmlns="http://www.w3.org/2000/svg">
<path d="M64 32C64 40.0636 60.9557 47.8299 55.4761 53.7456C49.9965 59.6613 42.4855 63.2902 34.4455 63.9064C26.4055 64.5227 18.4292 62.0808 12.112 57.0693C5.79489 52.0578 1.60263 44.8461 0.373772 36.8767C-0.855083 28.9072 0.97007 20.7677 5.48417 14.086C9.99827 7.40436 16.8685 2.67323 24.7207 0.838938C32.5729 -0.995355 40.8281 0.202426 47.8352 4.19271C54.8423 8.18298 60.0846 14.6716 62.5136 22.3606L54.9314 24.7559C53.106 18.9775 49.1663 14.1012 43.9004 11.1025C38.6345 8.10373 32.4305 7.20358 26.5295 8.58207C20.6285 9.96057 15.4654 13.5161 12.073 18.5374C8.68062 23.5588 7.30899 29.6757 8.23249 35.6649C9.15599 41.654 12.3065 47.0737 17.0539 50.8399C21.8014 54.6061 27.7956 56.4412 33.8378 55.9781C39.88 55.515 45.5246 52.7878 49.6426 48.3421C53.7606 43.8964 56.0484 38.0599 56.0484 32H64Z" fill="#00B3B0" fill-opacity="0.22"/>
<path d="M37.1256 46.8254L37.1278 46.8265C37.8081 47.1773 38.5421 47.35 39.2754 47.35C40.2168 47.35 41.1558 47.0623 41.9625 46.4961C43.3877 45.4908 44.0798 43.8255 43.787 42.1461C43.7869 42.1459 43.7869 42.1457 43.7868 42.1454L42.8611 36.9121L42.8002 36.5679L43.0538 36.3273L46.9644 32.6173L37.1256 46.8254ZM37.1256 46.8254L32.2976 44.3591L32.0017 44.208L31.706 44.3592L26.8743 46.8294M37.1256 46.8254L26.8743 46.8294M26.8743 46.8294C26.874 46.8296 26.8738 46.8297 26.8735 46.8298C26.8735 46.8298 26.8734 46.8299 26.8734 46.8299C25.3056 47.6281 23.4475 47.4986 22.0295 46.4929M26.8743 46.8294L22.0295 46.4929M22.0295 46.4929C20.6071 45.483 19.9193 43.821 20.2124 42.1457L21.1338 36.9071L21.1942 36.5635L20.9413 36.3232L17.0348 32.6129C15.7802 31.421 15.3383 29.6815 15.8733 28.0676C16.4141 26.4452 17.8251 25.2746 19.5687 25.028L19.5693 25.0279L24.9818 24.2569L25.3172 24.2091L25.4701 23.9069L27.8841 19.1365L27.8843 19.1362C28.6561 17.609 30.2261 16.65 32.0019 16.65C33.7685 16.65 35.3427 17.6088 36.1147 19.14L36.1154 19.1415L38.534 23.9076L38.687 24.2091L39.0218 24.2569L44.4253 25.0279L44.4263 25.028C46.1757 25.2749 47.5896 26.4464 48.1256 28.0667L48.1258 28.0671C48.6612 29.6817 48.2232 31.4211 46.9648 32.617L22.0295 46.4929ZM23.3877 29.8079L22.055 29.996L23.031 30.9228L25.3174 33.0939C25.3176 33.0941 25.3179 33.0944 25.3182 33.0947C26.4053 34.1353 26.89 35.608 26.6329 37.0388L26.6326 37.0408L26.0931 40.0984L25.8659 41.3866L27.0298 40.7898L29.8575 39.3398L29.8609 39.338C31.1948 38.644 32.8008 38.6462 34.1526 39.3472L34.1559 39.3489L36.9655 40.7857L38.1282 41.3803L37.9016 40.0942L37.363 37.0368C37.3628 37.036 37.3627 37.0352 37.3626 37.0344C37.1165 35.572 37.6094 34.1122 38.68 33.0956L38.6801 33.0956L40.9682 30.9228L41.9445 29.9958L40.6114 29.8078L37.4426 29.3611C37.4425 29.3611 37.4424 29.3611 37.4423 29.361C35.9485 29.1491 34.6601 28.2337 33.9987 26.9179L33.9976 26.9157L32.5815 24.1253L32.0014 22.9822L31.422 24.1257L30.006 26.9205L30.0054 26.9216C29.3442 28.233 28.056 29.149 26.5526 29.361L26.5525 29.361L23.3877 29.8079Z" stroke="#00B3B0" stroke-width="1.3"/>
</svg>
