<svg width="64" height="64" viewBox="0 0 64 64" fill="none" xmlns="http://www.w3.org/2000/svg">
<path d="M26.7188 40.75H38.2813V43.0625H26.7188V40.75ZM29.0313 45.375H35.9688V47.6875H29.0313V45.375ZM32.5 15.3125C29.4334 15.3125 26.4925 16.5307 24.3241 18.6991C22.1557 20.8675 20.9375 23.8084 20.9375 26.875C20.8593 28.5554 21.1812 30.2304 21.8767 31.7621C22.5722 33.2938 23.6215 34.6386 24.9381 35.6856C26.0944 36.7609 26.7188 37.3738 26.7188 38.4375H29.0313C29.0313 36.31 27.7478 35.1191 26.4991 33.9744C25.4184 33.1468 24.5571 32.0669 23.9907 30.8292C23.4242 29.5915 23.1699 28.2338 23.25 26.875C23.25 24.4217 24.2246 22.069 25.9593 20.3343C27.694 18.5996 30.0468 17.625 32.5 17.625C34.9533 17.625 37.306 18.5996 39.0407 20.3343C40.7755 22.069 41.75 24.4217 41.75 26.875C41.8288 28.2348 41.5727 29.5931 41.0042 30.8309C40.4357 32.0687 39.5722 33.1481 38.4894 33.9744C37.2522 35.1306 35.9688 36.2869 35.9688 38.4375H38.2813C38.2813 37.3738 38.8941 36.7609 40.0619 35.6741C41.3776 34.6288 42.4264 33.2861 43.1219 31.7563C43.8174 30.2266 44.1398 28.5536 44.0625 26.875C44.0625 25.3566 43.7634 23.853 43.1824 22.4502C42.6013 21.0474 41.7496 19.7728 40.6759 18.6991C39.6023 17.6254 38.3276 16.7737 36.9248 16.1926C35.522 15.6116 34.0184 15.3125 32.5 15.3125Z" fill="#00B3B0"/>
<path d="M64 32C64 40.0636 60.9557 47.8299 55.4761 53.7456C49.9965 59.6613 42.4855 63.2902 34.4455 63.9064C26.4055 64.5227 18.4292 62.0808 12.112 57.0693C5.79489 52.0578 1.60263 44.8461 0.373772 36.8767C-0.855083 28.9072 0.97007 20.7677 5.48417 14.086C9.99827 7.40436 16.8685 2.67323 24.7207 0.838938C32.5729 -0.995355 40.8281 0.202426 47.8352 4.19271C54.8423 8.18298 60.0846 14.6716 62.5136 22.3606L54.9314 24.7559C53.106 18.9775 49.1663 14.1012 43.9004 11.1025C38.6345 8.10373 32.4305 7.20358 26.5295 8.58207C20.6285 9.96057 15.4654 13.5161 12.073 18.5374C8.68062 23.5588 7.30899 29.6757 8.23249 35.6649C9.15599 41.654 12.3065 47.0737 17.0539 50.8399C21.8014 54.6061 27.7956 56.4412 33.8378 55.9781C39.88 55.515 45.5246 52.7878 49.6426 48.3421C53.7606 43.8964 56.0484 38.0599 56.0484 32H64Z" fill="#00B3B0" fill-opacity="0.22"/>
</svg>
