<svg width="109" height="50" viewBox="0 0 109 50" fill="none" xmlns="http://www.w3.org/2000/svg">
<rect x="2.81683" y="24.6479" width="19.0141" height="21.1268" rx="2" fill="#1B243F"/>
<rect x="29.5775" y="28.8732" width="19.0141" height="21.1268" rx="5" fill="#1B243F"/>
<path d="M16.3397 15C20.1887 8.33333 29.8113 8.33333 33.6603 15L37.9904 22.5C41.8394 29.1667 37.0281 37.5 29.3301 37.5H20.6699C12.9719 37.5 8.16062 29.1667 12.0096 22.5L16.3397 15Z" fill="#00B3B0"/>
<path d="M62.22 18H64.7L69.82 32H67.06L65.92 28.9H61L59.86 32H57.1L62.22 18ZM65.32 26.66L63.46 21.34H63.42L61.62 26.66H65.32ZM71.1297 22.04H73.5697V23.7L75.1697 22.04H78.0097V24.28H75.7097L73.7697 26.28V32H71.1297V22.04ZM80.2133 29.96V24.26H78.4133V22.04H80.2533V18.8H82.8533V22.04H85.8933V24.28H82.8533V29.1L83.5333 29.76H85.8933V32H82.2733L80.2133 29.96ZM86.9969 30.04V28.82H89.5969V29.38L90.0369 29.84H93.2769L93.7169 29.38V28.52L93.2569 28.04H88.9569L87.0769 26.14V23.96L88.9769 22.04H94.1769L96.1169 24V25.22H93.5169V24.66L93.0769 24.2H90.1169L89.6769 24.66V25.44L90.1369 25.92H94.4369L96.3169 27.82V30.08L94.4169 32H88.9369L86.9969 30.04ZM107.68 22.04V34.28L105.52 36.42H100.28L98.4195 34.58V33.22H101.06V33.82L101.44 34.22H104.36L105.04 33.52V30.52L103.56 32H100.26L98.1195 29.84V22.04H100.76V29.06L101.44 29.76H103.18L105.04 27.78V22.04H107.68Z" fill="#1B243F"/>
</svg>
