<svg width="64" height="64" viewBox="0 0 64 64" fill="none" xmlns="http://www.w3.org/2000/svg">
<path d="M64 32C64 40.0636 60.9557 47.8299 55.4761 53.7456C49.9965 59.6613 42.4855 63.2902 34.4455 63.9064C26.4055 64.5227 18.4292 62.0808 12.112 57.0693C5.79489 52.0578 1.60263 44.8461 0.373772 36.8767C-0.855083 28.9072 0.97007 20.7677 5.48417 14.086C9.99827 7.40436 16.8685 2.67323 24.7207 0.838938C32.5729 -0.995355 40.8281 0.202426 47.8352 4.19271C54.8423 8.18298 60.0846 14.6716 62.5136 22.3606L54.9314 24.7559C53.106 18.9775 49.1663 14.1012 43.9004 11.1025C38.6345 8.10373 32.4305 7.20358 26.5295 8.58207C20.6285 9.96057 15.4654 13.5161 12.073 18.5374C8.68062 23.5588 7.30899 29.6757 8.23249 35.6649C9.15599 41.654 12.3065 47.0737 17.0539 50.8399C21.8014 54.6061 27.7956 56.4412 33.8378 55.9781C39.88 55.515 45.5246 52.7878 49.6426 48.3421C53.7606 43.8964 56.0484 38.0599 56.0484 32H64Z" fill="#00B3B0" fill-opacity="0.22"/>
<path d="M18.3958 37.8959L24.5625 27.1042M44.6042 37.8959L38.4375 27.1042M31.5 46.375C23.8379 46.375 17.625 43.6155 17.625 40.2084C17.625 36.8013 23.8379 34.0417 31.5 34.0417C39.1621 34.0417 45.375 36.8013 45.375 40.2084C45.375 43.6155 39.1621 46.375 31.5 46.375ZM31.5 17.0834C32.7266 17.0834 33.903 17.5706 34.7704 18.438C35.6377 19.3054 36.125 20.4817 36.125 21.7084V23.25H26.875V21.7084C26.875 20.4817 27.3623 19.3054 28.2296 18.438C29.097 17.5706 30.2734 17.0834 31.5 17.0834Z" stroke="#00B3B0" stroke-width="1.5" stroke-linecap="round" stroke-linejoin="round"/>
</svg>
