<svg width="64" height="64" viewBox="0 0 64 64" fill="none" xmlns="http://www.w3.org/2000/svg">
<path d="M64 32C64 40.0636 60.9557 47.8299 55.4761 53.7456C49.9965 59.6613 42.4855 63.2902 34.4455 63.9064C26.4055 64.5227 18.4292 62.0808 12.112 57.0693C5.79489 52.0578 1.60263 44.8461 0.373772 36.8767C-0.855083 28.9072 0.97007 20.7677 5.48417 14.086C9.99827 7.40436 16.8685 2.67323 24.7207 0.838938C32.5729 -0.995355 40.8281 0.202426 47.8352 4.19271C54.8423 8.18298 60.0846 14.6716 62.5136 22.3606L54.9314 24.7559C53.106 18.9775 49.1663 14.1012 43.9004 11.1025C38.6345 8.10373 32.4305 7.20358 26.5295 8.58207C20.6285 9.96057 15.4654 13.5161 12.073 18.5374C8.68062 23.5588 7.30899 29.6757 8.23249 35.6649C9.15599 41.654 12.3065 47.0737 17.0539 50.8399C21.8014 54.6061 27.7956 56.4412 33.8378 55.9781C39.88 55.515 45.5246 52.7878 49.6426 48.3421C53.7606 43.8964 56.0484 38.0599 56.0484 32H64Z" fill="#00B3B0" fill-opacity="0.22"/>
<path d="M27.5 47.75H18.5C17.9034 47.7494 17.3315 47.5122 16.9097 47.0903C16.4878 46.6685 16.2506 46.0966 16.25 45.5V41C16.2506 40.4034 16.4878 39.8315 16.9097 39.4097C17.3315 38.9878 17.9034 38.7506 18.5 38.75H27.5C28.0966 38.7506 28.6685 38.9878 29.0903 39.4097C29.5122 39.8315 29.7494 40.4034 29.75 41V45.5C29.7494 46.0966 29.5122 46.6685 29.0903 47.0903C28.6685 47.5122 28.0966 47.7494 27.5 47.75ZM18.5 41V45.5H27.5V41H18.5ZM45.5 36.5H27.5C26.9034 36.4994 26.3315 36.2622 25.9097 35.8403C25.4878 35.4185 25.2506 34.8466 25.25 34.25V29.75C25.2506 29.1534 25.4878 28.5815 25.9097 28.1597C26.3315 27.7378 26.9034 27.5006 27.5 27.5H45.5C46.0966 27.5006 46.6685 27.7378 47.0903 28.1597C47.5122 28.5815 47.7494 29.1534 47.75 29.75V34.25C47.7494 34.8466 47.5122 35.4185 47.0903 35.8403C46.6685 36.2622 46.0966 36.4994 45.5 36.5ZM27.5 29.75V34.25H45.5V29.75H27.5ZM32 25.25H18.5C17.9034 25.2494 17.3315 25.0122 16.9097 24.5903C16.4878 24.1685 16.2506 23.5966 16.25 23V18.5C16.2506 17.9034 16.4878 17.3315 16.9097 16.9097C17.3315 16.4878 17.9034 16.2506 18.5 16.25H32C32.5966 16.2506 33.1685 16.4878 33.5903 16.9097C34.0122 17.3315 34.2494 17.9034 34.25 18.5V23C34.2494 23.5966 34.0122 24.1685 33.5903 24.5903C33.1685 25.0122 32.5966 25.2494 32 25.25ZM18.5 18.5V23H32V18.5H18.5Z" fill="#00B3B0"/>
</svg>
